# xmcd
#
# Track frame offsets: 
#        150
#        17160
#        42825
#        78752
#        101585
#        125325
#        149362
#        169837
#        189070
#        207617
#
# Disc length: 3011 seconds
#
# Revision: 4
# Processed by: cddbd v1.5.2PL0 Copyright (c) Steve Scherf et al.
# Submitted via: ExactAudioCopyFreeDBPlugin 1.0
#
DISCID=7f0bc10a
DTITLE=Blockbuster Summer Series: '80s R&B - Blockbuster Summer Series
DTITLE=: '80s R&B
DYEAR=1980
DGENRE=R&B
TTITLE0=Ashford and Simpson - Solid
TTITLE1=Deele, The - Body Talk
TTITLE2=Midnight Star - Freak-A-Zoid
TTITLE3=Shalamar - Dead Giveaway
TTITLE4=Cover Girls, The - We Can't Go Wrong
TTITLE5=Meli'sa Morgan - Do Me Baby
TTITLE6=Freddie Jackson - Jam Tonight
TTITLE7=Bernard Wright - Who Do You Love
TTITLE8=RJ's Latest Arrival - Heaven In Your Arms
TTITLE9=Natalie Cole - Someone That I Used To Love
EXTD=
EXTT0=
EXTT1=
EXTT2=
EXTT3=
EXTT4=
EXTT5=
EXTT6=
EXTT7=
EXTT8=
EXTT9=
PLAYORDER=
